# xmcd
#
# Track frame offsets:
#	150
#	18276
#	36241
#	55675
#	72701
#	91383
#	108610
#	127212
#	145053
#	165782
#	183119
#	211977
#
# Disc length: 3328 seconds
#
# Revision: 1
# Processed by: cddbd v1.5.2PL0 Copyright (c) Steve Scherf et al.
# Submitted via: audiograbber 1.83.01
#
DISCID=a50cfe0c
DTITLE=CARRIE UNDERWOOD - ASK-1548
DYEAR=2007
DGENRE=COUNTRY
TTITLE0=DON'T FORGET TO REMEMBER ME
TTITLE1=I JUST CAN'T LIVE A LIE
TTITLE2=INSIDE YOUR HEAVEN
TTITLE3=JESUS TAKE THE WHEEL
TTITLE4=LESSONS LEARNED
TTITLE5=SOME HEARTS
TTITLE6=STARTS WITH GOODBYE
TTITLE7=THE NIGHT BEFORE (LIFE GOES ON)
TTITLE8=WASTED
TTITLE9=WE'ER YOUNG AND BEAUTIFUL
TTITLE10=WHENEVER YOU REMEMBER
TTITLE11=Data Track
EXTD=
EXTT0=
EXTT1=
EXTT2=
EXTT3=
EXTT4=
EXTT5=
EXTT6=
EXTT7=
EXTT8=
EXTT9=
EXTT10=
EXTT11=
PLAYORDER=
